<?xml version="1.0" encoding="UTF-8" standalone="no"?>
<svg
   xmlns:dc="http://purl.org/dc/elements/1.1/"
   xmlns:cc="http://creativecommons.org/ns#"
   xmlns:rdf="http://www.w3.org/1999/02/22-rdf-syntax-ns#"
   xmlns:svg="http://www.w3.org/2000/svg"
   xmlns="http://www.w3.org/2000/svg"
   id="svg2"
   viewBox="0 0 17 17"
   height="17"
   width="17"
   version="1.1">
  <metadata
     id="metadata10">
    <rdf:RDF>
      <cc:Work
         rdf:about="">
        <dc:format>image/svg+xml</dc:format>
        <dc:type
           rdf:resource="http://purl.org/dc/dcmitype/StillImage" />
        <dc:title></dc:title>
      </cc:Work>
    </rdf:RDF>
  </metadata>
  <defs
     id="defs8" />
  <path
     id="path4"
     d="m 12.575111,10.918471 q 0,-0.268719 -0.191942,-0.479855 L 10.444554,8.5000002 12.383169,6.5613858 q 0.191942,-0.2111362 0.191942,-0.4798551 0,-0.2879129 -0.191942,-0.4990492 L 11.404265,4.6227714 Q 11.212323,4.4116352 10.92441,4.4116352 q -0.287914,0 -0.479856,0.2111362 L 8.5059396,6.5613858 6.5673246,4.6227714 Q 6.3561883,4.4116352 6.0682756,4.4116352 q -0.2879127,0 -0.479855,0.2111362 L 4.6287108,5.5824815 q -0.2111363,0.2111363 -0.2111363,0.4990492 0,0.2687189 0.2111363,0.4798551 L 6.5673246,8.5000002 4.6287108,10.438616 q -0.2111363,0.211136 -0.2111363,0.479855 0,0.287912 0.2111363,0.499049 l 0.9597098,0.959709 q 0.1919423,0.211137 0.479855,0.211137 0.2879127,0 0.499049,-0.211137 l 1.938615,-1.938613 1.9386144,1.938613 q 0.191942,0.211137 0.479856,0.211137 0.287913,0 0.479855,-0.211137 l 0.978904,-0.959709 q 0.191942,-0.211137 0.191942,-0.499049 z m 4.145947,-2.4184708 q 0,2.2457218 -1.09407,4.1267538 -1.094069,1.881032 -2.994295,2.994295 -1.900225,1.113264 -4.1267534,1.113264 -2.2265277,0 -4.1459474,-1.113264 Q 2.4405712,14.507786 1.3848908,12.626754 0.32920928,10.745722 0.27162699,8.5000002 0.21404469,6.2542786 1.3848908,4.3732467 2.5557371,2.492215 4.3599922,1.3789512 6.1642473,0.26568749 8.5059396,0.26568749 q 2.3416924,0 4.1267534,1.11326371 1.785061,1.1132638 2.994295,2.9942955 1.209235,1.8810319 1.09407,4.1267535 z" />
</svg>
