<?xml version="1.0" encoding="utf-8"?>
<!-- Generated by IcoMoon.io -->
<!DOCTYPE svg PUBLIC "-//W3C//DTD SVG 1.1//EN" "http://www.w3.org/Graphics/SVG/1.1/DTD/svg11.dtd">
<svg version="1.1" xmlns="http://www.w3.org/2000/svg" xmlns:xlink="http://www.w3.org/1999/xlink" width="27" height="32" viewBox="0 0 27 32">
<path d="M13.728 2.272q3.712 0 6.88 1.856t4.992 4.992 1.824 6.88-1.824 6.88-4.992 4.992-6.88 1.856-6.912-1.856-4.96-4.992-1.856-6.88 1.856-6.88 4.96-4.992 6.912-1.856zM20.576 16.992q0.576-0.32 0.576-0.992t-0.576-0.992l-9.728-5.696q-0.544-0.352-1.12-0.032-0.576 0.352-0.576 0.992v11.456q0 0.64 0.576 0.992 0.288 0.128 0.544 0.128 0.32 0 0.576-0.16z"></path>
</svg>
