<?xml version="1.0" encoding="utf-8"?>
<!-- Generated by IcoMoon.io -->
<!DOCTYPE svg PUBLIC "-//W3C//DTD SVG 1.1//EN" "http://www.w3.org/Graphics/SVG/1.1/DTD/svg11.dtd">
<svg version="1.1" xmlns="http://www.w3.org/2000/svg" xmlns:xlink="http://www.w3.org/1999/xlink" width="27" height="32" viewBox="0 0 27 32">
<path d="M13.728 17.152v8q0 0.448-0.352 0.8t-0.8 0.32-0.8-0.32l-2.592-2.592-5.92 5.952q-0.16 0.16-0.416 0.16t-0.416-0.16l-2.016-2.048q-0.192-0.16-0.192-0.416t0.192-0.416l5.92-5.92-2.56-2.56q-0.352-0.352-0.352-0.8t0.352-0.8 0.8-0.352h8q0.448 0 0.8 0.352t0.352 0.8zM27.2 5.152q0 0.224-0.192 0.416l-5.92 5.92 2.56 2.56q0.352 0.352 0.352 0.8t-0.352 0.8-0.8 0.352h-8q-0.448 0-0.8-0.352t-0.32-0.8v-8q0-0.448 0.32-0.8t0.8-0.32 0.8 0.32l2.592 2.592 5.92-5.952q0.192-0.16 0.416-0.16t0.416 0.16l2.016 2.048q0.192 0.16 0.192 0.416z"></path>
</svg>
